<svg class="main-svg" xmlns="http://www.w3.org/2000/svg" xmlns:xlink="http://www.w3.org/1999/xlink" width="700" height="450" style="" viewBox="0 0 700 450"><rect x="0" y="0" width="700" height="450" style="fill: rgb(255, 255, 255); fill-opacity: 1;"/><defs id="defs-5dbbcb"><g class="clips"><clipPath id="clip5dbbcbxyplot" class="plotclip"><rect width="580" height="330"/></clipPath><clipPath class="axesclip" id="clip5dbbcbx"><rect x="60" y="0" width="580" height="450"/></clipPath><clipPath class="axesclip" id="clip5dbbcby"><rect x="0" y="60" width="700" height="330"/></clipPath><clipPath class="axesclip" id="clip5dbbcbxy"><rect x="60" y="60" width="580" height="330"/></clipPath></g><g class="gradients"/></defs><g class="bglayer"/><g class="layer-below"><g class="imagelayer"/><g class="shapelayer"/></g><g class="cartesianlayer"><g class="subplot xy"><g class="layer-subplot"><g class="shapelayer"/><g class="imagelayer"/></g><g class="gridlayer"><g class="x"><path class="xgrid crisp" transform="translate(139.89,0)" d="M0,60v330" style="stroke: rgb(238, 238, 238); stroke-opacity: 1; stroke-width: 1px;"/><path class="xgrid crisp" transform="translate(219.78,0)" d="M0,60v330" style="stroke: rgb(238, 238, 238); stroke-opacity: 1; stroke-width: 1px;"/><path class="xgrid crisp" transform="translate(299.66999999999996,0)" d="M0,60v330" style="stroke: rgb(238, 238, 238); stroke-opacity: 1; stroke-width: 1px;"/><path class="xgrid crisp" transform="translate(379.56,0)" d="M0,60v330" style="stroke: rgb(238, 238, 238); stroke-opacity: 1; stroke-width: 1px;"/><path class="xgrid crisp" transform="translate(459.45,0)" d="M0,60v330" style="stroke: rgb(238, 238, 238); stroke-opacity: 1; stroke-width: 1px;"/><path class="xgrid crisp" transform="translate(539.3399999999999,0)" d="M0,60v330" style="stroke: rgb(238, 238, 238); stroke-opacity: 1; stroke-width: 1px;"/><path class="xgrid crisp" transform="translate(619.23,0)" d="M0,60v330" style="stroke: rgb(238, 238, 238); stroke-opacity: 1; stroke-width: 1px;"/></g><g class="y"><path class="ygrid crisp" transform="translate(0,370.97)" d="M60,0h580" style="stroke: rgb(238, 238, 238); stroke-opacity: 1; stroke-width: 1px;"/><path class="ygrid crisp" transform="translate(0,332.19)" d="M60,0h580" style="stroke: rgb(238, 238, 238); stroke-opacity: 1; stroke-width: 1px;"/><path class="ygrid crisp" transform="translate(0,293.40999999999997)" d="M60,0h580" style="stroke: rgb(238, 238, 238); stroke-opacity: 1; stroke-width: 1px;"/><path class="ygrid crisp" transform="translate(0,254.63)" d="M60,0h580" style="stroke: rgb(238, 238, 238); stroke-opacity: 1; stroke-width: 1px;"/><path class="ygrid crisp" transform="translate(0,215.85)" d="M60,0h580" style="stroke: rgb(238, 238, 238); stroke-opacity: 1; stroke-width: 1px;"/><path class="ygrid crisp" transform="translate(0,177.07)" d="M60,0h580" style="stroke: rgb(238, 238, 238); stroke-opacity: 1; stroke-width: 1px;"/><path class="ygrid crisp" transform="translate(0,138.29000000000002)" d="M60,0h580" style="stroke: rgb(238, 238, 238); stroke-opacity: 1; stroke-width: 1px;"/><path class="ygrid crisp" transform="translate(0,99.50999999999999)" d="M60,0h580" style="stroke: rgb(238, 238, 238); stroke-opacity: 1; stroke-width: 1px;"/></g></g><g class="zerolinelayer"><path class="xzl zl crisp" transform="translate(60,0)" d="M0,60v330" style="stroke: rgb(68, 68, 68); stroke-opacity: 1; stroke-width: 1px;"/></g><path class="xlines-below"/><path class="ylines-below"/><g class="overlines-below"/><g class="xaxislayer-below"/><g class="yaxislayer-below"/><g class="overaxes-below"/><g class="plot" transform="translate(60, 60)" clip-path="url(#clip5dbbcbxyplot)"><g class="scatterlayer mlayer"><g class="trace scatter trace33c5e8" style="stroke-miterlimit: 2; opacity: 1;"><g class="fills"/><g class="errorbars"/><g class="lines"><path class="js-line" d="M0,16.5L1.2,64.62L1.6,68.58L2.4,73.47L2.8,72.79L3.2,73.15L6.79,78.63L7.19,78.77L10.39,82.36L10.79,91.11L11.98,94.82L12.38,96.78L12.78,97.41L13.18,96.51L15.18,94.16L15.58,94.62L17.98,95.95L18.37,96.11L21.17,97.64L21.57,112.38L22.77,101.9L23.17,102.41L23.97,104.73L24.37,106.23L24.77,106.93L25.17,106.11L26.36,106.88L26.76,106.24L31.96,107.3L32.36,113.01L32.75,114.35L33.15,110.8L34.35,114.7L34.75,114.7L35.55,112.51L35.95,113.52L36.35,114.77L36.75,114.13L37.15,113.28L37.95,113.59L38.35,112.66L40.34,113.9L40.74,113.66L42.34,114.98L42.74,114.57L43.14,115.9L43.54,120.81L43.94,117.68L44.34,118.73L44.74,119.79L45.54,120.7L45.94,120.12L46.74,121.79L47.13,120.71L49.13,122.36L49.53,123.4L51.93,122.31L52.33,122.37L53.53,122.36L53.93,118.74L54.33,124.48L54.72,123.76L55.12,124.31L57.12,128.78L57.52,128.74L58.72,128.43L59.12,129.15L60.32,129.18L60.72,129.24L61.91,129.66L62.31,129.96L64.31,131L64.71,138.41L65.11,136.42L65.51,138.82L65.91,136.87L66.31,140.35L67.11,140.49L67.51,141.05L67.91,143.44L68.31,142.69L68.71,142.76L69.5,142.23L69.9,143.03L70.7,142.5L71.1,143.15L72.3,143.05L72.7,143.94L73.5,144.64L73.9,145.54L75.1,146.63L75.5,144.92L75.9,143.08L76.29,144.23L76.69,148.63L77.09,147.73L77.49,150.79L78.69,153.78L79.09,153.3L80.29,154.47L80.69,154.38L81.09,153.93L81.49,154.73L83.09,153.93L83.48,154.18L85.48,156.09L85.88,156.45L86.28,166.4L86.68,157.84L87.08,156.32L88.68,161.67L89.08,161.35L89.48,161.32L89.88,160.41L90.28,160.89L90.67,161.43L91.47,161.6L91.87,162.61L95.47,167.49L95.87,167.53L96.67,167.76L97.07,189.04L98.66,178.13L99.06,179.56L99.46,178.41L99.86,179.46L100.26,178.96L101.06,178.25L101.46,178.63L101.86,179.16L103.06,180.14L103.46,179.48L105.85,177.85L106.25,177.98L107.45,178.93L107.85,193.71L108.25,191.72L108.65,193.35L109.05,191.97L111.85,186.1L112.25,186.64L113.04,187.18L113.44,186.98L114.64,186.84L115.04,186.46L115.84,186.64L116.24,187.16L117.04,188.25L117.44,188.04L118.24,187.88L118.64,198.09L119.04,201L119.44,196.58L119.83,194.76L120.23,196.72L121.03,195.19L121.43,196.18L121.83,195.73L122.23,194.12L122.63,193.6L123.03,194.57L124.23,193.56L124.63,193.62L125.43,193.98L125.83,194.27L127.02,196.21L127.42,196.83L128.62,198.05L129.02,197.78L129.42,193.62L129.82,195.27L130.22,199.02L131.42,194.48L131.82,195.56L133.02,196.11L133.42,197.32L133.82,197.43L134.21,198.53L135.81,200.9L136.21,200.18L140.21,205.1L140.61,217.01L141.4,209.51L141.8,210.02L143,214.57L143.4,214.44L143.8,214.14L144.2,215.34L144.6,214.92L145,214.86L145.4,214.2L145.8,214.66L146.2,215.09L146.6,215.37L147,214.46L148.6,213.17L148.99,213.29L150.59,213.16L150.99,223.4L151.39,210.95L151.79,215.69L152.19,218.55L152.59,221.92L152.99,220.75L153.39,218.6L154.59,215.45L154.99,215.94L156.58,218.25L156.98,219.63L159.38,221.91L159.78,221.47L160.58,222.04L160.98,222.42L161.38,223.12L161.78,221.57L162.18,227.11L162.58,226.09L162.98,225.55L163.37,227.38L163.77,226.86L164.17,226.35L164.57,226.21L164.97,224.58L166.57,226.64L166.97,226.65L167.37,225.71L167.77,225.92L168.17,226.87L169.37,227.82L169.77,227.27L172.16,229.28L172.56,244.1L172.96,245.06L173.36,238.84L173.76,239.19L174.16,235.52L175.36,232.17L175.76,233.52L177.36,236.2L177.75,236.36L178.15,235.81L178.55,236.55L178.95,237.29L179.35,235.73L180.15,236.52L180.55,236.16L182.95,237.3L183.35,243.25L184.55,237.9L184.94,236.9L187.34,241.47L187.74,241.72L188.54,239.67L188.94,240.32L190.94,240.12L191.34,240.67L192.53,240.53L192.93,240.83L193.73,241.28L194.13,256.83L194.53,245.48L194.93,246.2L195.33,249.54L196.93,246.85L197.33,247.88L200.12,244.72L200.52,245.54L202.92,245.56L203.32,245.16L204.52,244.4L204.92,245.4L206.12,247.4L206.52,246.77L207.31,250.48L207.71,250.09L208.11,250.38L208.51,251.45L208.91,250.82L209.31,250.14L210.11,250.51L210.51,249.63L211.71,249.67L212.11,248.34L215.3,249.66L215.7,261.86L216.9,253.51L217.3,256.38L218.1,251.14L218.5,252.2L219.7,249.48L220.1,250.21L220.5,250.45L221.29,250.27L221.69,250.22L222.49,250.24L222.89,251.18L224.49,252.24L224.89,253.03L226.09,253.46L226.49,264.43L227.29,252.88L227.69,252.41L228.88,253.8L229.28,250.85L229.68,249.8L230.08,250.41L230.48,250.09L232.08,253.96L232.48,253.34L233.28,255.12L233.68,254.52L234.08,254.5L235.67,254.54L236.07,255.12L236.87,255.88L237.27,267.56L238.07,251.34L238.47,254.49L238.87,254.61L239.27,256.42L239.67,258.31L240.07,257.81L240.47,258.01L241.67,255.68L242.07,255.87L244.86,259.6L245.26,259.13L246.46,258.19L246.86,258.21L247.66,257.87L248.06,240.44L248.86,257.11L249.26,252.8L249.66,254.7L250.06,252.66L250.45,253.54L250.85,253.62L253.25,258.62L253.65,258.41L254.85,259.38L255.25,260.09L256.05,260.15L256.45,260.46L258.04,259.87L258.44,259.87L260.84,267.67L261.24,264.55L262.44,265.97L262.84,265.53L263.24,264.26L263.64,265.14L264.04,264.81L265.23,264.37L265.63,264.93L267.23,264.71L267.63,265.05L269.23,264.58L269.63,271.32L270.03,259.37L270.43,261.03L270.83,263.09L271.63,266.25L272.02,265.62L272.42,265.88L274.42,262.08L274.82,262.46L275.62,262.32L276.02,263.11L278.02,263.86L278.42,263.51L279.21,263.01L279.61,262.58L280.01,262.55L280.41,274.56L280.81,269.66L281.21,270.39L281.61,272.94L282.01,272.09L282.41,273.15L284.01,276.09L284.41,275.52L284.81,274.47L287.6,275.11L288,275.46L289.2,275.37L289.6,275.64L290.8,275.8L291.2,270.87L292,280.34L292.4,277.83L292.8,278.27L293.2,274.44L293.99,273.37L294.39,273.94L294.79,275.14L296.39,275.79L296.79,275.21L301.18,277.26L301.58,276.95L301.98,269.85L302.38,273.55L302.78,280.69L303.18,281.84L303.58,281.66L303.98,278.85L304.38,277.19L304.78,277.37L305.18,277.93L306.78,280.03L307.18,279.53L307.98,279.19L308.37,278.79L311.57,278.95L311.97,278.38L312.37,278.77L312.77,269.03L313.97,280.78L314.37,279.37L314.77,278.11L315.17,278.39L315.56,279.7L316.76,282.44L317.16,282.15L318.76,278.83L319.16,279.65L321.96,280.81L322.36,280.32L323.15,279.78L323.55,276.54L323.95,274.72L324.35,280.32L325.55,281.91L325.95,280.3L326.35,279.56L326.75,279.86L327.15,279.78L327.95,279.75L328.35,279.27L329.15,278.34L329.55,279.03L331.54,280.62L331.94,280.53L332.34,280.19L332.74,280.9L333.94,281.29L334.34,290.01L334.74,285.75L335.14,287.4L335.54,286.6L336.34,284.62L336.74,283.74L337.93,281.19L338.33,281.23L341.53,282.03L341.93,281.17L342.73,281.46L343.13,281.05L344.72,282.41L345.12,288.87L345.92,276.44L346.32,276.56L346.72,279.59L347.12,277.91L347.52,279.6L348.72,282L349.12,282.46L349.52,282.05L349.92,282.79L351.12,282.08L351.52,282.66L352.31,283.04L352.71,283.39L354.31,284.22L354.71,283.81L355.51,284.07L355.91,282.44L356.31,286.26L356.71,282.45L357.11,285.41L357.51,284.59L357.91,285.16L358.31,283.58L358.71,283.98L359.1,284.07L360.3,283.83L360.7,284.38L362.3,284.92L362.7,285.16L363.5,285.21L363.9,285.49L365.1,285.33L365.5,285.24L366.29,285.06L366.69,280.16L369.09,283.22L369.49,284.62L371.09,284.39L371.49,284.98L371.89,285.85L372.29,285.47L372.69,285.16L373.88,283.44L374.28,283.81L377.08,284.44L377.48,296.87L378.28,294.46L378.68,295.77L379.08,292.17L379.48,293.15L379.88,293.15L380.28,293.29L380.67,292.21L381.87,292.66L382.27,292.89L383.47,291.98L383.87,291.9L384.67,291.06L385.07,291.76L385.87,290.59L386.27,291L386.67,290.87L387.87,290.9L388.26,294.31L388.66,293.05L389.06,294.96L389.46,297.04L389.86,294.07L390.26,295.21L390.66,294.73L391.06,293.83L392.26,293.2L392.66,294.05L393.86,295.66L394.26,295.15L396.65,294.47L397.05,293.8L397.85,293.37L398.25,293.7L398.65,293.84L399.05,288.83L399.45,285.21L399.85,286.08L400.25,286.96L401.45,291.94L401.85,293.44L402.64,293.59L403.04,294.32L403.44,294.51L403.84,293.49L405.44,292.88L405.84,293.12L406.64,293.14L407.04,292.54L407.84,292.71L408.24,292.4L409.44,292.89L409.83,293.36L410.23,289.56L410.63,290.82L411.03,293.71L411.83,294.71L412.23,294.64L412.63,294.87L413.03,296.2L413.43,297.02L413.83,295.74L414.63,296.87L415.03,296.59L416.23,295.85L416.63,295.93L418.62,295.63L419.02,295.93L420.22,296.22L420.62,304.53L421.82,294.58L422.22,295.63L423.42,296.45L423.82,295.34L425.01,296.5L425.41,296.34L425.81,295.75L426.21,296.28L426.61,296.19L427.41,296.39L427.81,296.3L430.21,296.36L430.61,296.72L431.01,296.84L431.4,307.6L431.8,308.22L432.2,304.35L433.4,299.86L433.8,300.91L434.2,300.86L434.6,298.09L435.8,297.65L436.2,298.35L437.8,298.77L438.2,298.56L439.39,298.45L439.79,298.25L441.79,298.63L442.19,290.9L442.59,293.92L442.99,291.68L443.39,292.46L444.19,295.56L444.59,295.31L444.99,296.86L445.39,295.88L445.79,296.57L446.18,296.9L446.58,295.82L446.98,296.66L447.38,297.07L448.98,296.76L449.38,296.96L452.58,297.73L452.98,293.31L454.17,301.67L454.57,301.37L455.37,302.08L455.77,301.41L456.17,301.68L456.57,300.54L456.97,300.09L457.37,301.05L458.57,301.78L458.97,301.46L459.37,301.61L459.77,300.72L460.96,300.3L461.36,300.12L463.36,300.46L463.76,299.56L464.16,302.36L464.56,301.95L464.96,301.32L465.36,303.45L465.76,302.5L466.16,302.5L467.75,299.94L468.15,299.76L474.15,299.55L474.55,289.77L475.74,301.82L476.14,301.52L477.34,303.32L477.74,303.14L479.34,302.24L479.74,302.51L481.34,300.96L481.74,300.92L482.13,301.39L482.53,300.95L482.93,301.1L484.53,301.73L484.93,301.15L485.33,297.43L485.73,298.41L486.13,300.42L486.93,300.34L487.33,301.37L488.53,300.71L488.93,299.53L489.72,300.48L490.12,299.98L490.52,300.23L492.92,301.92L493.32,301.54L494.12,301.88L494.52,302.02L496.12,302.4L496.52,299.36L497.71,296.38L498.11,297.18L498.51,297.61L498.91,297.13L499.31,296.4L500.91,297.13L501.31,297.2L503.71,299.73L504.1,299.34L506.5,299.46L506.9,304.32L507.7,304.33L508.1,305.65L509.7,303.02L510.1,303.71L511.69,301.96L512.09,302.71L512.49,303.32L512.89,302.73L513.29,302.62L516.89,303.66L517.29,303.15L518.09,302.44L518.48,302.77L518.88,301.49L519.28,303.25L519.68,302.53L520.08,303.38L521.68,306.03L522.08,306.17L523.28,305.74L523.68,305.06L524.48,304.81L524.88,304.39L526.87,303.48L527.27,303.55L528.07,304.01L528.47,299.93L528.87,297.87L529.27,300.72L530.07,300.37L530.47,302.12L530.87,303.21L531.27,301.86L532.07,301.27L532.47,301.66L532.87,302.31L533.26,301.77L533.66,302.16L536.06,302.91L536.46,302.9L538.06,302.88L538.46,303.26L538.86,303.42L539.26,299.93L539.66,298.39L540.06,299.56L540.45,301.1L541.25,300.19L541.65,301.39L543.25,300.33L543.65,300.39L545.25,301.65L545.65,301.24L546.85,302.04L547.25,301.54L548.44,301.77L548.84,302.06L549.64,302.43L550.04,304.55L550.44,307.73L550.84,304.41L551.24,304L551.64,305.24L552.44,303.09L552.84,303.89L553.24,304.28L554.04,304.88L554.44,303.86L556.83,303.14L557.23,303.37L560.43,303.73L560.83,313.5L562.02,302.91L562.42,303.28L562.82,303.29L564.02,302.81L564.42,302.82L564.82,302.31L565.22,302.64L565.62,302.63L566.42,302.55L566.82,302.42L568.42,300.91L568.82,300.96L571.21,301.39L571.61,305.06L572.01,302.15L572.41,304.18L572.81,304.16L574.01,303.87L574.41,304.11L574.81,303.7L575.21,304.23L575.61,304.54L576.01,303.95L576.4,304.55L576.8,304.44L577.6,305.35L578,304.55L579.2,304.6L579.6,304.27L580,304.34" style="vector-effect: non-scaling-stroke; fill: none; stroke: rgb(31, 119, 180); stroke-opacity: 1; stroke-width: 2px; opacity: 1;"/></g><g class="points"/><g class="text"/></g></g></g><g class="overplot"/><path class="xlines-above crisp" d="M0,0" style="fill: none;"/><path class="ylines-above crisp" d="M0,0" style="fill: none;"/><g class="overlines-above"/><g class="xaxislayer-above"><g class="xtick"><text text-anchor="middle" x="0" y="403" transform="translate(60,0)" style="font-family: 'Open Sans', verdana, arial, sans-serif; font-size: 12px; fill: rgb(68, 68, 68); fill-opacity: 1; white-space: pre;">0</text></g><g class="xtick"><text text-anchor="middle" x="0" y="403" transform="translate(139.89,0)" style="font-family: 'Open Sans', verdana, arial, sans-serif; font-size: 12px; fill: rgb(68, 68, 68); fill-opacity: 1; white-space: pre;">200</text></g><g class="xtick"><text text-anchor="middle" x="0" y="403" transform="translate(219.78,0)" style="font-family: 'Open Sans', verdana, arial, sans-serif; font-size: 12px; fill: rgb(68, 68, 68); fill-opacity: 1; white-space: pre;">400</text></g><g class="xtick"><text text-anchor="middle" x="0" y="403" transform="translate(299.66999999999996,0)" style="font-family: 'Open Sans', verdana, arial, sans-serif; font-size: 12px; fill: rgb(68, 68, 68); fill-opacity: 1; white-space: pre;">600</text></g><g class="xtick"><text text-anchor="middle" x="0" y="403" transform="translate(379.56,0)" style="font-family: 'Open Sans', verdana, arial, sans-serif; font-size: 12px; fill: rgb(68, 68, 68); fill-opacity: 1; white-space: pre;">800</text></g><g class="xtick"><text text-anchor="middle" x="0" y="403" transform="translate(459.45,0)" style="font-family: 'Open Sans', verdana, arial, sans-serif; font-size: 12px; fill: rgb(68, 68, 68); fill-opacity: 1; white-space: pre;">1000</text></g><g class="xtick"><text text-anchor="middle" x="0" y="403" transform="translate(539.3399999999999,0)" style="font-family: 'Open Sans', verdana, arial, sans-serif; font-size: 12px; fill: rgb(68, 68, 68); fill-opacity: 1; white-space: pre;">1200</text></g><g class="xtick"><text text-anchor="middle" x="0" y="403" transform="translate(619.23,0)" style="font-family: 'Open Sans', verdana, arial, sans-serif; font-size: 12px; fill: rgb(68, 68, 68); fill-opacity: 1; white-space: pre;">1400</text></g></g><g class="yaxislayer-above"><g class="ytick"><text text-anchor="end" x="59" y="4.199999999999999" transform="translate(0,370.97)" style="font-family: 'Open Sans', verdana, arial, sans-serif; font-size: 12px; fill: rgb(68, 68, 68); fill-opacity: 1; white-space: pre;">0.1</text></g><g class="ytick"><text text-anchor="end" x="59" y="4.199999999999999" transform="translate(0,332.19)" style="font-family: 'Open Sans', verdana, arial, sans-serif; font-size: 12px; fill: rgb(68, 68, 68); fill-opacity: 1; white-space: pre;">0.2</text></g><g class="ytick"><text text-anchor="end" x="59" y="4.199999999999999" transform="translate(0,293.40999999999997)" style="font-family: 'Open Sans', verdana, arial, sans-serif; font-size: 12px; fill: rgb(68, 68, 68); fill-opacity: 1; white-space: pre;">0.3</text></g><g class="ytick"><text text-anchor="end" x="59" y="4.199999999999999" transform="translate(0,254.63)" style="font-family: 'Open Sans', verdana, arial, sans-serif; font-size: 12px; fill: rgb(68, 68, 68); fill-opacity: 1; white-space: pre;">0.4</text></g><g class="ytick"><text text-anchor="end" x="59" y="4.199999999999999" transform="translate(0,215.85)" style="font-family: 'Open Sans', verdana, arial, sans-serif; font-size: 12px; fill: rgb(68, 68, 68); fill-opacity: 1; white-space: pre;">0.5</text></g><g class="ytick"><text text-anchor="end" x="59" y="4.199999999999999" transform="translate(0,177.07)" style="font-family: 'Open Sans', verdana, arial, sans-serif; font-size: 12px; fill: rgb(68, 68, 68); fill-opacity: 1; white-space: pre;">0.6</text></g><g class="ytick"><text text-anchor="end" x="59" y="4.199999999999999" transform="translate(0,138.29000000000002)" style="font-family: 'Open Sans', verdana, arial, sans-serif; font-size: 12px; fill: rgb(68, 68, 68); fill-opacity: 1; white-space: pre;">0.7</text></g><g class="ytick"><text text-anchor="end" x="59" y="4.199999999999999" transform="translate(0,99.50999999999999)" style="font-family: 'Open Sans', verdana, arial, sans-serif; font-size: 12px; fill: rgb(68, 68, 68); fill-opacity: 1; white-space: pre;">0.8</text></g><g class="ytick"><text text-anchor="end" x="59" y="4.199999999999999" transform="translate(0,60.73)" style="font-family: 'Open Sans', verdana, arial, sans-serif; font-size: 12px; fill: rgb(68, 68, 68); fill-opacity: 1; white-space: pre;">0.9</text></g></g><g class="overaxes-above"/></g></g><g class="polarlayer"/><g class="ternarylayer"/><g class="geolayer"/><g class="pielayer"/><g class="glimages"/><defs id="topdefs-5dbbcb"><g class="clips"/></defs><g class="layer-above"><g class="imagelayer"/><g class="shapelayer"/></g><g class="infolayer"><g class="g-gtitle"><text class="gtitle" x="350" y="30" text-anchor="middle" dy="0em" style="font-family: 'Open Sans', verdana, arial, sans-serif; font-size: 17px; fill: rgb(68, 68, 68); opacity: 1; font-weight: normal; white-space: pre;">loss</text></g><g class="g-xtitle"/><g class="g-ytitle"/></g></svg>